<svg xmlns="http://www.w3.org/2000/svg" xmlns:xlink="http://www.w3.org/1999/xlink" width="57" height="66" viewBox="0 0 681.167 778.583" overflow="visible" enable-background="new 0 0 681.167 778.583" xml:space="preserve"><g id="Layer_1"><path fill="#00598E" d="M510.167 144.833c-39.75-24.75-77.25-34.5-114.75-59.25 c-23.25-15.75-55.5-53.25-82.5-85.5c-5.25 51.75-21 72.75-39 87.75c-38.25 30-62.25 39-95.25 57 c-27.75 14.25-178.5 104.25-178.5 297.75s162.75 336 343.5 336c180.75 0 337.5-131.25 337.5-330S534.167 159.8 510.2 144.8 z"/><path fill="#FFFFFF" d="M449.25 610.5c12 0 24.8 0.8 33.8 6.75s14.25 19.5 17.2 27s0 12-6 15 c-5.25 3-6 1.5-11.25-8.25s-9.75-19.5-36-19.5s-34.5 9-47.25 19.5s-17.25 14.25-21.75 8.25s-3-12 5.25-19.5 s21.75-19.5 34.5-24.75S437.25 610.5 449.2 610.5L449.25 610.5z"/><path fill="#FFFFFF" d="M324.75 696c15 12 37.5 21.8 85.5 21.75S492 704.2 507 693 c6.75-5.25 9.75-0.75 10.5 2.25s2.25 7.5-3 12.75c-3.75 3.75-38.25 27.75-78.75 31.5s-95.25 6-128.25-24 c-5.25-5.25-3.75-12.75 0-15.75s6.75-5.25 11.25-5.25S322.5 694.5 324.8 696L324.75 696z"/><path fill="#0073BA" d="M141 639c57-0.75 67.5-10.5 117.75-33c271.5-121.5 321.75-232.5 331.5-258 s24-66.75 9-112.5c-2.896-8.832-5.006-15.924-6.53-21.63c-36.079-40.343-71.899-62.357-82.72-69.12 c-39-24.75-77.25-34.5-114.75-59.25c-23.25-15-55.5-53.25-82.5-85.5c-5.25 51.75-20.25 73.5-39 87.8 c-38.25 30-62.25 39-95.25 57C150.75 159.8 0 249 0 442.5c0 61.8 16.6 118.4 45.1 166.766L52.5 609 C68.25 623.2 93 639.8 141 639z"/><path fill="#004975" d="M510 144.75c-39-24.75-77.25-34.5-114.75-59.25c-23.25-15-55.5-53.25-82.5-85.5 c-5.25 51.75-20.25 73.5-39 87.75c-38.25 30-62.25 39-95.25 57C150.75 159.8 0 249 0 442.5 c0 61.8 16.6 118.4 45.1 166.766C105.763 712.5 220.5 778.5 343.5 778.5c180.75 0 337.5-131.25 337.5-330 c0-109.146-44.332-185.488-88.28-234.63C556.641 173.5 520.8 151.5 510 144.75z M601.164 232.5 c49.242 61.6 74.2 134.2 74.2 215.953c0 47.428-9.033 92.23-26.849 133.165c-16.9 38.831-41.236 73.233-72.333 102.3 c-61.469 57.364-144.107 88.956-232.693 88.956c-43.826 0-86.832-8.371-127.824-24.882 c-40.263-16.217-76.547-39.438-107.843-69.019C41.923 616.7 5.6 532.7 5.6 442.5c0-80.336 26.076-151.72 77.503-212.167 c39.289-46.18 81.655-71.774 98.047-80.634c7.958-4.341 15.423-8.172 22.643-11.877c22.63-11.615 44.005-22.586 73.404-45.645 c15.677-11.914 32.377-30.785 39.489-78.702c24.774 29.5 53.5 62.6 75.5 76.752c19.5 12.9 39.5 21.9 58.8 30.6 c18.298 8.2 37.2 16.8 55.9 28.663c0.032 0 0.7 0.4 0.7 0.438C562.421 184.1 591.6 220.6 601.2 232.547z "/><path fill="#93C5E4" d="M316.5 15c10.5 30.8 9 46.5 9 53.25S321.75 93 309.8 102 c-5.25 3.75-6.75 6.75-6.75 7.5c0 3 6.8 5.2 6.8 12c0 8.25-3.75 24.75-43.5 64.5s-96.75 75-141 96.75S60 303 54 292.5 s2.25-33.75 30-64.5s115.5-75 115.5-75L309 76.5l6-29.25"/><path fill="#FFFFFF" d="M316.5 14.25c-6.75 49.5-21.75 64.5-42 80.25c-33.75 25.5-66.75 41.25-74.25 45 c-19.5 9.75-90 48.75-126.75 105c-11.25 17.2 0 24 2.2 25.5s27.75 4.5 82.5-28.5S237 189 267.8 156.8 c16.5-17.25 18.75-27 18.75-31.5c0-5.25-3.75-7.5-9.75-9c-3-0.75-3.75-2.25 0-4.5S296.25 102 300 99s21.75-15 22.5-34.5 S321.75 31.5 316.5 14.25L316.5 14.25z"/><path fill="#FFFFFF" d="M147.75 559.5c0.75-58.5 55.5-113.25 124.5-114c87.75-0.75 148.5 87 192.8 86.2 c37.5-0.75 109.5-74.25 144.75-74.25c37.5 0 48 39 48 62.25s-7.5 65.25-25.5 91.5s-29.25 36-50.25 34.5 c-27-2.25-81-86.25-115.5-87.75c-43.5-1.5-138 90.75-212.25 90.75c-45 0-58.5-6.75-73.5-16.5 C158.25 616.5 147 592.5 147.8 559.5L147.75 559.5z"/><path fill="none" d="M599.25 235.5c15 45.8 0.8 87-9 112.5s-60 136.5-331.5 258 C208.5 628.5 198 638.2 141 639c-48 0.75-72.75-15.75-88.5-30l-7.437 0.266C105.763 712.5 220.5 778.5 343.5 778.5 c180.75 0 337.5-131.25 337.5-330c0-109.146-44.332-185.488-88.28-234.63C594.244 219.6 596.4 226.7 599.2 235.5z"/></g></svg>